<?xml version="1.0" encoding="UTF-8" standalone="no"?>
<!DOCTYPE svg PUBLIC "-//W3C//DTD SVG 1.1//EN"
 "http://www.w3.org/Graphics/SVG/1.1/DTD/svg11.dtd">
<!-- Generated by graphviz version 14.1.2 (20260124.0452)
 -->
<!-- Pages: 1 -->
<svg width="1152pt" height="179pt"
 viewBox="0.00 0.00 1152.00 179.00" xmlns="http://www.w3.org/2000/svg" xmlns:xlink="http://www.w3.org/1999/xlink">
<g id="graph0" class="graph" transform="scale(0.734577 0.734577) rotate(0) translate(4 239)">
<polygon fill="white" stroke="none" points="-4,4 -4,-239 1564.25,-239 1564.25,4 -4,4"/>
<g id="clust1" class="cluster">
<title>cluster_input</title>
<path fill="#dbe9f4" stroke="#1f4e79" d="M12,-30C12,-30 182.5,-30 182.5,-30 188.5,-30 194.5,-36 194.5,-42 194.5,-42 194.5,-148 194.5,-148 194.5,-154 188.5,-160 182.5,-160 182.5,-160 12,-160 12,-160 6,-160 0,-154 0,-148 0,-148 0,-42 0,-42 0,-36 6,-30 12,-30"/>
<text xml:space="preserve" text-anchor="middle" x="97.25" y="-142.7" font-family="Helvetica,sans-Serif" font-weight="bold" font-size="14.00">CLINICAL INPUT (Frontend)</text>
</g>
<g id="clust2" class="cluster">
<title>cluster_rag</title>
<path fill="#e9f5ec" stroke="#3a5a40" d="M383.5,-92C383.5,-92 968,-92 968,-92 974,-92 980,-98 980,-104 980,-104 980,-160 980,-160 980,-166 974,-172 968,-172 968,-172 383.5,-172 383.5,-172 377.5,-172 371.5,-166 371.5,-160 371.5,-160 371.5,-104 371.5,-104 371.5,-98 377.5,-92 383.5,-92"/>
<text xml:space="preserve" text-anchor="middle" x="675.75" y="-154.7" font-family="Helvetica,sans-Serif" font-size="14.00">AGENTIC RAG PIPELINE (LangGraph)</text>
</g>
<g id="clust3" class="cluster">
<title>cluster_tools</title>
<path fill="#f1f3f5" stroke="#6c757d" d="M1012,-93C1012,-93 1232,-93 1232,-93 1238,-93 1244,-99 1244,-105 1244,-105 1244,-215 1244,-215 1244,-221 1238,-227 1232,-227 1232,-227 1012,-227 1012,-227 1006,-227 1000,-221 1000,-215 1000,-215 1000,-105 1000,-105 1000,-99 1006,-93 1012,-93"/>
<text xml:space="preserve" text-anchor="middle" x="1122" y="-209.7" font-family="Helvetica,sans-Serif" font-size="14.00">CLINICAL TOOL LAYER (LangChain)</text>
</g>
<g id="clust4" class="cluster">
<title>cluster_eval</title>
<path fill="#fff4e6" stroke="#7f5539" d="M370.75,-8C370.75,-8 1156.25,-8 1156.25,-8 1162.25,-8 1168.25,-14 1168.25,-20 1168.25,-20 1168.25,-72 1168.25,-72 1168.25,-78 1162.25,-84 1156.25,-84 1156.25,-84 370.75,-84 370.75,-84 364.75,-84 358.75,-78 358.75,-72 358.75,-72 358.75,-20 358.75,-20 358.75,-14 364.75,-8 370.75,-8"/>
<text xml:space="preserve" text-anchor="middle" x="763.5" y="-66.7" font-family="Helvetica,sans-Serif" font-size="14.00">OFFLINE EVALUATION SUBSYSTEM</text>
</g>
<!-- clinical_query -->
<g id="node1" class="node">
<title>clinical_query</title>
<path fill="white" stroke="black" d="M152,-74C152,-74 41.5,-74 41.5,-74 35.5,-74 29.5,-68 29.5,-62 29.5,-62 29.5,-50 29.5,-50 29.5,-44 35.5,-38 41.5,-38 41.5,-38 152,-38 152,-38 158,-38 164,-44 164,-50 164,-50 164,-62 164,-62 164,-68 158,-74 152,-74"/>
<text xml:space="preserve" text-anchor="middle" x="96.75" y="-50.58" font-family="Helvetica,sans-Serif" font-size="14.00">Clinical Query Input</text>
</g>
<!-- api -->
<g id="node3" class="node">
<title>api</title>
<path fill="#a9d6e5" stroke="#2a6f97" d="M318.75,-95C318.75,-95 234.5,-95 234.5,-95 228.5,-95 222.5,-89 222.5,-83 222.5,-83 222.5,-71 222.5,-71 222.5,-65 228.5,-59 234.5,-59 234.5,-59 318.75,-59 318.75,-59 324.75,-59 330.75,-65 330.75,-71 330.75,-71 330.75,-83 330.75,-83 330.75,-89 324.75,-95 318.75,-95"/>
<text xml:space="preserve" text-anchor="middle" x="276.62" y="-71.58" font-family="Helvetica,sans-Serif" font-size="14.00">API GATEWAY</text>
</g>
<!-- clinical_query&#45;&gt;api -->
<g id="edge1" class="edge">
<title>clinical_query&#45;&gt;api</title>
<path fill="none" stroke="black" d="M164.49,-63.88C179.65,-65.67 195.73,-67.57 210.81,-69.35"/>
<polygon fill="black" stroke="black" points="210.27,-72.81 220.61,-70.51 211.09,-65.86 210.27,-72.81"/>
</g>
<!-- risk_param -->
<g id="node2" class="node">
<title>risk_param</title>
<path fill="white" stroke="black" d="M156.5,-128C156.5,-128 37,-128 37,-128 31,-128 25,-122 25,-116 25,-116 25,-104 25,-104 25,-98 31,-92 37,-92 37,-92 156.5,-92 156.5,-92 162.5,-92 168.5,-98 168.5,-104 168.5,-104 168.5,-116 168.5,-116 168.5,-122 162.5,-128 156.5,-128"/>
<text xml:space="preserve" text-anchor="middle" x="96.75" y="-104.58" font-family="Helvetica,sans-Serif" font-size="14.00">Risk Parameter Input</text>
</g>
<!-- risk_param&#45;&gt;api -->
<g id="edge2" class="edge">
<title>risk_param&#45;&gt;api</title>
<path fill="none" stroke="black" d="M168.82,-96.82C182.73,-94.23 197.25,-91.54 210.94,-89"/>
<polygon fill="black" stroke="black" points="211.53,-92.45 220.72,-87.19 210.25,-85.57 211.53,-92.45"/>
</g>
<!-- retrieve -->
<g id="node4" class="node">
<title>retrieve</title>
<path fill="#cfe2ff" stroke="black" d="M509.5,-139.75C509.5,-139.75 391.5,-139.75 391.5,-139.75 385.5,-139.75 379.5,-133.75 379.5,-127.75 379.5,-127.75 379.5,-112.25 379.5,-112.25 379.5,-106.25 385.5,-100.25 391.5,-100.25 391.5,-100.25 509.5,-100.25 509.5,-100.25 515.5,-100.25 521.5,-106.25 521.5,-112.25 521.5,-112.25 521.5,-127.75 521.5,-127.75 521.5,-133.75 515.5,-139.75 509.5,-139.75"/>
<text xml:space="preserve" text-anchor="middle" x="450.5" y="-122.45" font-family="Helvetica,sans-Serif" font-size="14.00">1. RETRIEVE NODE</text>
<text xml:space="preserve" text-anchor="middle" x="450.5" y="-106.7" font-family="Helvetica,sans-Serif" font-size="14.00">SapBERT + FAISS</text>
</g>
<!-- api&#45;&gt;retrieve -->
<g id="edge3" class="edge">
<title>api&#45;&gt;retrieve</title>
<path fill="none" stroke="black" d="M331.07,-90.37C342.8,-93.31 355.49,-96.48 368.05,-99.62"/>
<polygon fill="black" stroke="black" points="367,-102.97 377.55,-102 368.7,-96.18 367,-102.97"/>
</g>
<!-- benchmark -->
<g id="node9" class="node">
<title>benchmark</title>
<path fill="white" stroke="black" d="M522.25,-52C522.25,-52 378.75,-52 378.75,-52 372.75,-52 366.75,-46 366.75,-40 366.75,-40 366.75,-28 366.75,-28 366.75,-22 372.75,-16 378.75,-16 378.75,-16 522.25,-16 522.25,-16 528.25,-16 534.25,-22 534.25,-28 534.25,-28 534.25,-40 534.25,-40 534.25,-46 528.25,-52 522.25,-52"/>
<text xml:space="preserve" text-anchor="middle" x="450.5" y="-28.57" font-family="Helvetica,sans-Serif" font-size="14.00">BENCHMARK DATASET</text>
</g>
<!-- api&#45;&gt;benchmark -->
<g id="edge8" class="edge">
<title>api&#45;&gt;benchmark</title>
<path fill="none" stroke="black" d="M331.07,-63.63C341.74,-60.96 353.21,-58.09 364.65,-55.23"/>
<polygon fill="black" stroke="black" points="365.26,-58.68 374.11,-52.86 363.56,-51.89 365.26,-58.68"/>
</g>
<!-- rerank -->
<g id="node5" class="node">
<title>rerank</title>
<path fill="#cfe2ff" stroke="black" d="M775.25,-139.75C775.25,-139.75 582.25,-139.75 582.25,-139.75 576.25,-139.75 570.25,-133.75 570.25,-127.75 570.25,-127.75 570.25,-112.25 570.25,-112.25 570.25,-106.25 576.25,-100.25 582.25,-100.25 582.25,-100.25 775.25,-100.25 775.25,-100.25 781.25,-100.25 787.25,-106.25 787.25,-112.25 787.25,-112.25 787.25,-127.75 787.25,-127.75 787.25,-133.75 781.25,-139.75 775.25,-139.75"/>
<text xml:space="preserve" text-anchor="middle" x="678.75" y="-122.45" font-family="Helvetica,sans-Serif" font-size="14.00">2. RERANK NODE</text>
<text xml:space="preserve" text-anchor="middle" x="678.75" y="-106.7" font-family="Helvetica,sans-Serif" font-size="14.00">Decay: ETVD, Sigmoid, BioScore</text>
</g>
<!-- retrieve&#45;&gt;rerank -->
<g id="edge4" class="edge">
<title>retrieve&#45;&gt;rerank</title>
<path fill="none" stroke="black" d="M521.85,-120C533.69,-120 546.26,-120 558.93,-120"/>
<polygon fill="black" stroke="black" points="558.55,-123.5 568.55,-120 558.55,-116.5 558.55,-123.5"/>
</g>
<!-- generate -->
<g id="node6" class="node">
<title>generate</title>
<path fill="#cfe2ff" stroke="black" d="M960,-139.75C960,-139.75 835.25,-139.75 835.25,-139.75 829.25,-139.75 823.25,-133.75 823.25,-127.75 823.25,-127.75 823.25,-112.25 823.25,-112.25 823.25,-106.25 829.25,-100.25 835.25,-100.25 835.25,-100.25 960,-100.25 960,-100.25 966,-100.25 972,-106.25 972,-112.25 972,-112.25 972,-127.75 972,-127.75 972,-133.75 966,-139.75 960,-139.75"/>
<text xml:space="preserve" text-anchor="middle" x="897.62" y="-122.45" font-family="Helvetica,sans-Serif" font-size="14.00">3. GENERATE NODE</text>
<text xml:space="preserve" text-anchor="middle" x="897.62" y="-106.7" font-family="Helvetica,sans-Serif" font-size="14.00">Tool&#45;Augmented LLM</text>
</g>
<!-- rerank&#45;&gt;generate -->
<g id="edge5" class="edge">
<title>rerank&#45;&gt;generate</title>
<path fill="none" stroke="black" d="M787.55,-120C795.62,-120 803.7,-120 811.6,-120"/>
<polygon fill="black" stroke="black" points="811.52,-123.5 821.52,-120 811.52,-116.5 811.52,-123.5"/>
</g>
<!-- pubmed -->
<g id="node7" class="node">
<title>pubmed</title>
<path fill="#ffffff" stroke="black" d="M1166.25,-137C1166.25,-137 1076.75,-137 1076.75,-137 1070.75,-137 1064.75,-131 1064.75,-125 1064.75,-125 1064.75,-113 1064.75,-113 1064.75,-107 1070.75,-101 1076.75,-101 1076.75,-101 1166.25,-101 1166.25,-101 1172.25,-101 1178.25,-107 1178.25,-113 1178.25,-113 1178.25,-125 1178.25,-125 1178.25,-131 1172.25,-137 1166.25,-137"/>
<text xml:space="preserve" text-anchor="middle" x="1121.5" y="-113.58" font-family="Helvetica,sans-Serif" font-size="14.00">search_pubmed</text>
</g>
<!-- generate&#45;&gt;pubmed -->
<g id="edge6" class="edge">
<title>generate&#45;&gt;pubmed</title>
<path fill="none" stroke="black" d="M972.2,-119.67C998.23,-119.55 1027.38,-119.42 1052.89,-119.3"/>
<polygon fill="black" stroke="black" points="1052.84,-122.81 1062.82,-119.26 1052.81,-115.81 1052.84,-122.81"/>
</g>
<!-- predict -->
<g id="node8" class="node">
<title>predict</title>
<path fill="#ffffff" stroke="black" d="M1193.25,-194.75C1193.25,-194.75 1049.75,-194.75 1049.75,-194.75 1043.75,-194.75 1037.75,-188.75 1037.75,-182.75 1037.75,-182.75 1037.75,-167.25 1037.75,-167.25 1037.75,-161.25 1043.75,-155.25 1049.75,-155.25 1049.75,-155.25 1193.25,-155.25 1193.25,-155.25 1199.25,-155.25 1205.25,-161.25 1205.25,-167.25 1205.25,-167.25 1205.25,-182.75 1205.25,-182.75 1205.25,-188.75 1199.25,-194.75 1193.25,-194.75"/>
<text xml:space="preserve" text-anchor="middle" x="1121.5" y="-177.45" font-family="Helvetica,sans-Serif" font-size="14.00">predict_heart_failure_risk</text>
<text xml:space="preserve" text-anchor="middle" x="1121.5" y="-161.7" font-family="Helvetica,sans-Serif" font-size="14.00">(ChronosModel)</text>
</g>
<!-- generate&#45;&gt;predict -->
<g id="edge7" class="edge">
<title>generate&#45;&gt;predict</title>
<path fill="none" stroke="black" d="M972.23,-139.02C981.57,-141.39 991.01,-143.76 1000,-146 1008.61,-148.14 1017.57,-150.34 1026.55,-152.53"/>
<polygon fill="black" stroke="black" points="1025.47,-155.87 1036.02,-154.84 1027.13,-149.07 1025.47,-155.87"/>
</g>
<!-- ablation -->
<g id="node10" class="node">
<title>ablation</title>
<path fill="white" stroke="black" d="M738.88,-52C738.88,-52 618.62,-52 618.62,-52 612.62,-52 606.62,-46 606.62,-40 606.62,-40 606.62,-28 606.62,-28 606.62,-22 612.62,-16 618.62,-16 618.62,-16 738.88,-16 738.88,-16 744.88,-16 750.88,-22 750.88,-28 750.88,-28 750.88,-40 750.88,-40 750.88,-46 744.88,-52 738.88,-52"/>
<text xml:space="preserve" text-anchor="middle" x="678.75" y="-28.57" font-family="Helvetica,sans-Serif" font-size="14.00">ABLATION RUNNER</text>
</g>
<!-- benchmark&#45;&gt;ablation -->
<g id="edge9" class="edge">
<title>benchmark&#45;&gt;ablation</title>
<path fill="none" stroke="black" d="M534.46,-34C554.18,-34 575.21,-34 594.92,-34"/>
<polygon fill="black" stroke="black" points="594.84,-37.5 604.84,-34 594.84,-30.5 594.84,-37.5"/>
</g>
<!-- metrics -->
<g id="node11" class="node">
<title>metrics</title>
<path fill="white" stroke="black" d="M952.5,-52C952.5,-52 842.75,-52 842.75,-52 836.75,-52 830.75,-46 830.75,-40 830.75,-40 830.75,-28 830.75,-28 830.75,-22 836.75,-16 842.75,-16 842.75,-16 952.5,-16 952.5,-16 958.5,-16 964.5,-22 964.5,-28 964.5,-28 964.5,-40 964.5,-40 964.5,-46 958.5,-52 952.5,-52"/>
<text xml:space="preserve" text-anchor="middle" x="897.62" y="-28.57" font-family="Helvetica,sans-Serif" font-size="14.00">METRICS ENGINE</text>
</g>
<!-- ablation&#45;&gt;metrics -->
<g id="edge10" class="edge">
<title>ablation&#45;&gt;metrics</title>
<path fill="none" stroke="black" d="M751.36,-34C773.11,-34 797.1,-34 819.22,-34"/>
<polygon fill="black" stroke="black" points="819.07,-37.5 829.07,-34 819.07,-30.5 819.07,-37.5"/>
</g>
<!-- results -->
<g id="node12" class="node">
<title>results</title>
<path fill="white" stroke="black" d="M1148.25,-52C1148.25,-52 1094.75,-52 1094.75,-52 1088.75,-52 1082.75,-46 1082.75,-40 1082.75,-40 1082.75,-28 1082.75,-28 1082.75,-22 1088.75,-16 1094.75,-16 1094.75,-16 1148.25,-16 1148.25,-16 1154.25,-16 1160.25,-22 1160.25,-28 1160.25,-28 1160.25,-40 1160.25,-40 1160.25,-46 1154.25,-52 1148.25,-52"/>
<text xml:space="preserve" text-anchor="middle" x="1121.5" y="-28.57" font-family="Helvetica,sans-Serif" font-size="14.00">RESULTS</text>
</g>
<!-- metrics&#45;&gt;results -->
<g id="edge11" class="edge">
<title>metrics&#45;&gt;results</title>
<path fill="none" stroke="black" d="M964.89,-34C998.86,-34 1039.54,-34 1070.78,-34"/>
<polygon fill="black" stroke="black" points="1070.75,-37.5 1080.75,-34 1070.75,-30.5 1070.75,-37.5"/>
</g>
<!-- summary -->
<g id="node13" class="node">
<title>summary</title>
<path fill="#fde68a" stroke="#b45309" d="M1548.25,-52C1548.25,-52 1284,-52 1284,-52 1278,-52 1272,-46 1272,-40 1272,-40 1272,-28 1272,-28 1272,-22 1278,-16 1284,-16 1284,-16 1548.25,-16 1548.25,-16 1554.25,-16 1560.25,-22 1560.25,-28 1560.25,-28 1560.25,-40 1560.25,-40 1560.25,-46 1554.25,-52 1548.25,-52"/>
<text xml:space="preserve" text-anchor="middle" x="1416.12" y="-28.57" font-family="Helvetica,sans-Serif" font-size="14.00">CLINICAL INSIGHT &amp; RESULTS SUMMARY</text>
</g>
<!-- results&#45;&gt;summary -->
<g id="edge12" class="edge">
<title>results&#45;&gt;summary</title>
<path fill="none" stroke="black" d="M1160.46,-34C1186.56,-34 1223.15,-34 1260.46,-34"/>
<polygon fill="black" stroke="black" points="1260,-37.5 1270,-34 1260,-30.5 1260,-37.5"/>
</g>
</g>
</svg>
