<?xml version="1.0" encoding="UTF-8" standalone="no"?>
<!DOCTYPE svg PUBLIC "-//W3C//DTD SVG 1.1//EN"
 "http://www.w3.org/Graphics/SVG/1.1/DTD/svg11.dtd">
<!-- Generated by graphviz version 14.1.2 (20260124.0452)
 -->
<!-- Title: TempoRAG_Architecture Pages: 1 -->
<svg width="3600pt" height="1125pt"
 viewBox="0.00 0.00 3600.00 1125.00" xmlns="http://www.w3.org/2000/svg" xmlns:xlink="http://www.w3.org/1999/xlink">
<g id="graph0" class="graph" transform="scale(1.76039 1.76039) rotate(0) translate(4 635)">
<title>TempoRAG_Architecture</title>
<polygon fill="white" stroke="none" points="-4,4 -4,-635 2041,-635 2041,4 -4,4"/>
<text xml:space="preserve" text-anchor="middle" x="1018.5" y="-604.2" font-family="Arial, Helvetica, sans-serif Bold" font-size="24.00">TempoRAG: Research Methodology Diagram</text>
<g id="clust1" class="cluster">
<title>cluster_input</title>
<path fill="#4785c6" stroke="#2b71b9" stroke-width="2" d="M733,-431C733,-431 1013.4,-431 1013.4,-431 1019.4,-431 1025.4,-437 1025.4,-443 1025.4,-443 1025.4,-548 1025.4,-548 1025.4,-554 1019.4,-560 1013.4,-560 1013.4,-560 733,-560 733,-560 727,-560 721,-554 721,-548 721,-548 721,-443 721,-443 721,-437 727,-431 733,-431"/>
<text xml:space="preserve" text-anchor="middle" x="873.2" y="-542.7" font-family="Arial, Helvetica, sans-serif Bold" font-size="14.00" fill="white">CLINICAL</text>
<text xml:space="preserve" text-anchor="middle" x="873.2" y="-526.95" font-family="Arial, Helvetica, sans-serif Bold" font-size="14.00" fill="white">INPUT</text>
<text xml:space="preserve" text-anchor="middle" x="873.2" y="-511.2" font-family="Arial, Helvetica, sans-serif Bold" font-size="14.00" fill="white">(Frontend)</text>
</g>
<g id="clust2" class="cluster">
<title>cluster_right_side</title>
</g>
<g id="clust3" class="cluster">
<title>cluster_rag</title>
<path fill="#f1f5f9" stroke="black" stroke-width="1.5" d="M1079.4,-71C1079.4,-71 1576.2,-71 1576.2,-71 1582.2,-71 1588.2,-77 1588.2,-83 1588.2,-83 1588.2,-273 1588.2,-273 1588.2,-279 1582.2,-285 1576.2,-285 1576.2,-285 1079.4,-285 1079.4,-285 1073.4,-285 1067.4,-279 1067.4,-273 1067.4,-273 1067.4,-83 1067.4,-83 1067.4,-77 1073.4,-71 1079.4,-71"/>
<text xml:space="preserve" text-anchor="middle" x="1327.8" y="-267.7" font-family="Arial, Helvetica, sans-serif Bold" font-size="14.00">AGENTIC RAG PIPELINE</text>
<text xml:space="preserve" text-anchor="middle" x="1327.8" y="-251.95" font-family="Arial, Helvetica, sans-serif Bold" font-size="14.00">(LangGraph)</text>
</g>
<g id="clust4" class="cluster">
<title>cluster_tools</title>
<path fill="#f1f5f9" stroke="black" stroke-width="1.5" d="M1642.2,-96C1642.2,-96 2009,-96 2009,-96 2015,-96 2021,-102 2021,-108 2021,-108 2021,-209 2021,-209 2021,-215 2015,-221 2009,-221 2009,-221 1642.2,-221 1642.2,-221 1636.2,-221 1630.2,-215 1630.2,-209 1630.2,-209 1630.2,-108 1630.2,-108 1630.2,-102 1636.2,-96 1642.2,-96"/>
<text xml:space="preserve" text-anchor="middle" x="1825.6" y="-205.6" font-family="Arial, Helvetica, sans-serif Bold" font-size="12.00">CLINICAL TOOL</text>
<text xml:space="preserve" text-anchor="middle" x="1825.6" y="-191.35" font-family="Arial, Helvetica, sans-serif Bold" font-size="12.00">LAYER</text>
<text xml:space="preserve" text-anchor="middle" x="1825.6" y="-177.1" font-family="Arial, Helvetica, sans-serif Bold" font-size="12.00">(LangChain)</text>
</g>
<g id="clust5" class="cluster">
<title>cluster_eval</title>
<path fill="#f1f5f9" stroke="black" stroke-width="1.5" d="M1093.8,-293C1093.8,-293 1763.8,-293 1763.8,-293 1769.8,-293 1775.8,-299 1775.8,-305 1775.8,-305 1775.8,-379 1775.8,-379 1775.8,-385 1769.8,-391 1763.8,-391 1763.8,-391 1093.8,-391 1093.8,-391 1087.8,-391 1081.8,-385 1081.8,-379 1081.8,-379 1081.8,-305 1081.8,-305 1081.8,-299 1087.8,-293 1093.8,-293"/>
<text xml:space="preserve" text-anchor="middle" x="1428.8" y="-373.7" font-family="Arial, Helvetica, sans-serif Bold" font-size="14.00">OFFLINE EVALUATION SUBSYSTEM</text>
</g>
<!-- query_input -->
<g id="node1" class="node">
<title>query_input</title>
<path fill="#f8fafc" stroke="black" d="M832.2,-496.8C832.2,-496.8 741,-496.8 741,-496.8 735,-496.8 729,-490.8 729,-484.8 729,-484.8 729,-451.2 729,-451.2 729,-445.2 735,-439.2 741,-439.2 741,-439.2 832.2,-439.2 832.2,-439.2 838.2,-439.2 844.2,-445.2 844.2,-451.2 844.2,-451.2 844.2,-484.8 844.2,-484.8 844.2,-490.8 838.2,-496.8 832.2,-496.8"/>
<text xml:space="preserve" text-anchor="middle" x="786.6" y="-470.45" font-family="Arial, Helvetica, sans-serif" font-size="14.00">Clinical</text>
<text xml:space="preserve" text-anchor="middle" x="786.6" y="-454.7" font-family="Arial, Helvetica, sans-serif" font-size="14.00">Query Input</text>
</g>
<!-- risk_input -->
<g id="node2" class="node">
<title>risk_input</title>
<path fill="#f8fafc" stroke="black" d="M1005.4,-496.8C1005.4,-496.8 914.2,-496.8 914.2,-496.8 908.2,-496.8 902.2,-490.8 902.2,-484.8 902.2,-484.8 902.2,-451.2 902.2,-451.2 902.2,-445.2 908.2,-439.2 914.2,-439.2 914.2,-439.2 1005.4,-439.2 1005.4,-439.2 1011.4,-439.2 1017.4,-445.2 1017.4,-451.2 1017.4,-451.2 1017.4,-484.8 1017.4,-484.8 1017.4,-490.8 1011.4,-496.8 1005.4,-496.8"/>
<text xml:space="preserve" text-anchor="middle" x="959.8" y="-478.32" font-family="Arial, Helvetica, sans-serif" font-size="14.00">Risk</text>
<text xml:space="preserve" text-anchor="middle" x="959.8" y="-462.57" font-family="Arial, Helvetica, sans-serif" font-size="14.00">Parameter</text>
<text xml:space="preserve" text-anchor="middle" x="959.8" y="-446.82" font-family="Arial, Helvetica, sans-serif" font-size="14.00">Input</text>
</g>
<!-- query_input&#45;&gt;risk_input -->
<!-- api_gateway -->
<g id="node3" class="node">
<title>api_gateway</title>
<path fill="#a8d0e6" stroke="black" d="M991,-396C991,-396 928.6,-396 928.6,-396 922.6,-396 916.6,-390 916.6,-384 916.6,-384 916.6,-12 916.6,-12 916.6,-6 922.6,0 928.6,0 928.6,0 991,0 991,0 997,0 1003,-6 1003,-12 1003,-12 1003,-384 1003,-384 1003,-390 997,-396 991,-396"/>
<text xml:space="preserve" text-anchor="middle" x="959.8" y="-200.45" font-family="Arial, Helvetica, sans-serif Bold" font-size="14.00">API</text>
<text xml:space="preserve" text-anchor="middle" x="959.8" y="-184.7" font-family="Arial, Helvetica, sans-serif Bold" font-size="14.00">GATEWAY</text>
</g>
<!-- query_input&#45;&gt;api_gateway -->
<g id="edge8" class="edge">
<title>query_input&#45;&gt;api_gateway</title>
<path fill="none" stroke="black" stroke-width="2" d="M787,-438.85C787,-369.03 787,-198 787,-198 787,-198 903.17,-198 903.17,-198"/>
<polygon fill="black" stroke="black" stroke-width="2" points="903.17,-201.5 913.17,-198 903.17,-194.5 903.17,-201.5"/>
</g>
<!-- retrieve -->
<g id="node5" class="node">
<title>retrieve</title>
<path fill="#ddebfa" stroke="black" d="M1193,-237.2C1193,-237.2 1087.4,-237.2 1087.4,-237.2 1081.4,-237.2 1075.4,-231.2 1075.4,-225.2 1075.4,-225.2 1075.4,-90.8 1075.4,-90.8 1075.4,-84.8 1081.4,-78.8 1087.4,-78.8 1087.4,-78.8 1193,-78.8 1193,-78.8 1199,-78.8 1205,-84.8 1205,-90.8 1205,-90.8 1205,-225.2 1205,-225.2 1205,-231.2 1199,-237.2 1193,-237.2"/>
<text xml:space="preserve" text-anchor="middle" x="1140.2" y="-190.65" font-family="Arial, Helvetica, sans-serif" font-size="13.00">1. RETRIEVE</text>
<text xml:space="preserve" text-anchor="middle" x="1140.2" y="-175.65" font-family="Arial, Helvetica, sans-serif" font-size="13.00">NODE</text>
<text xml:space="preserve" text-anchor="middle" x="1140.2" y="-145.65" font-family="Arial, Helvetica, sans-serif" font-size="13.00">SapBERT</text>
<text xml:space="preserve" text-anchor="middle" x="1140.2" y="-130.65" font-family="Arial, Helvetica, sans-serif" font-size="13.00">&amp;</text>
<text xml:space="preserve" text-anchor="middle" x="1140.2" y="-115.65" font-family="Arial, Helvetica, sans-serif" font-size="13.00">FAISS</text>
</g>
<!-- api_gateway&#45;&gt;retrieve -->
<g id="edge9" class="edge">
<title>api_gateway&#45;&gt;retrieve</title>
<path fill="none" stroke="black" stroke-width="2" d="M1003.47,-158C1003.47,-158 1062.05,-158 1062.05,-158"/>
<polygon fill="black" stroke="black" stroke-width="2" points="1062.05,-161.5 1072.05,-158 1062.05,-154.5 1062.05,-161.5"/>
</g>
<!-- eval_benchmark -->
<g id="node10" class="node">
<title>eval_benchmark</title>
<path fill="#ddebfa" stroke="black" d="M1178.6,-358.8C1178.6,-358.8 1101.8,-358.8 1101.8,-358.8 1095.8,-358.8 1089.8,-352.8 1089.8,-346.8 1089.8,-346.8 1089.8,-313.2 1089.8,-313.2 1089.8,-307.2 1095.8,-301.2 1101.8,-301.2 1101.8,-301.2 1178.6,-301.2 1178.6,-301.2 1184.6,-301.2 1190.6,-307.2 1190.6,-313.2 1190.6,-313.2 1190.6,-346.8 1190.6,-346.8 1190.6,-352.8 1184.6,-358.8 1178.6,-358.8"/>
<text xml:space="preserve" text-anchor="middle" x="1140.2" y="-332.85" font-family="Arial, Helvetica, sans-serif" font-size="12.00">BENCHMARK</text>
<text xml:space="preserve" text-anchor="middle" x="1140.2" y="-318.6" font-family="Arial, Helvetica, sans-serif" font-size="12.00">DATASET</text>
</g>
<!-- api_gateway&#45;&gt;eval_benchmark -->
<g id="edge10" class="edge">
<title>api_gateway&#45;&gt;eval_benchmark</title>
<path fill="none" stroke="black" stroke-width="2" d="M1003.47,-330C1003.47,-330 1076.56,-330 1076.56,-330"/>
<polygon fill="black" stroke="black" stroke-width="2" points="1076.56,-333.5 1086.56,-330 1076.56,-326.5 1076.56,-333.5"/>
</g>
<!-- summary_insight -->
<g id="node4" class="node">
<title>summary_insight</title>
<path fill="#fff3cd" stroke="black" stroke-width="1.5" d="M600,-476C600,-476 12,-476 12,-476 6,-476 0,-470 0,-464 0,-464 0,-416 0,-416 0,-410 6,-404 12,-404 12,-404 600,-404 600,-404 606,-404 612,-410 612,-416 612,-416 612,-464 612,-464 612,-470 606,-476 600,-476"/>
<text xml:space="preserve" text-anchor="middle" x="306" y="-434.57" font-family="Arial, Helvetica, sans-serif Bold" font-size="14.00">CLINICAL INSIGHT &amp; RESULTS SUMMARY</text>
</g>
<!-- feedback_anchor -->
<g id="node14" class="node">
<title>feedback_anchor</title>
<ellipse fill="black" stroke="black" cx="670.5" cy="-440" rx="0.36" ry="0.36"/>
</g>
<!-- summary_insight&#45;&gt;feedback_anchor -->
<g id="edge15" class="edge">
<title>summary_insight:w&#45;&gt;feedback_anchor</title>
<path fill="none" stroke="black" stroke-width="2" d="M0,-440C0,-440 644.56,-440 669.74,-440"/>
</g>
<!-- rerank -->
<g id="node6" class="node">
<title>rerank</title>
<path fill="#ddebfa" stroke="black" d="M1380.6,-237.2C1380.6,-237.2 1275,-237.2 1275,-237.2 1269,-237.2 1263,-231.2 1263,-225.2 1263,-225.2 1263,-90.8 1263,-90.8 1263,-84.8 1269,-78.8 1275,-78.8 1275,-78.8 1380.6,-78.8 1380.6,-78.8 1386.6,-78.8 1392.6,-84.8 1392.6,-90.8 1392.6,-90.8 1392.6,-225.2 1392.6,-225.2 1392.6,-231.2 1386.6,-237.2 1380.6,-237.2"/>
<text xml:space="preserve" text-anchor="middle" x="1327.8" y="-198.15" font-family="Arial, Helvetica, sans-serif" font-size="13.00">2. RERANK</text>
<text xml:space="preserve" text-anchor="middle" x="1327.8" y="-183.15" font-family="Arial, Helvetica, sans-serif" font-size="13.00">NODE</text>
<text xml:space="preserve" text-anchor="middle" x="1327.8" y="-153.15" font-family="Arial, Helvetica, sans-serif" font-size="13.00">Configurable</text>
<text xml:space="preserve" text-anchor="middle" x="1327.8" y="-138.15" font-family="Arial, Helvetica, sans-serif" font-size="13.00">Decay: ETVD,</text>
<text xml:space="preserve" text-anchor="middle" x="1327.8" y="-123.15" font-family="Arial, Helvetica, sans-serif" font-size="13.00">Sigmoid,</text>
<text xml:space="preserve" text-anchor="middle" x="1327.8" y="-108.15" font-family="Arial, Helvetica, sans-serif" font-size="13.00">BioScore</text>
</g>
<!-- retrieve&#45;&gt;rerank -->
<g id="edge2" class="edge">
<title>retrieve&#45;&gt;rerank</title>
<path fill="none" stroke="black" stroke-width="2" d="M1205.29,-158C1205.29,-158 1249.48,-158 1249.48,-158"/>
<polygon fill="black" stroke="black" stroke-width="2" points="1249.48,-161.5 1259.48,-158 1249.48,-154.5 1249.48,-161.5"/>
</g>
<!-- generate -->
<g id="node7" class="node">
<title>generate</title>
<path fill="#ddebfa" stroke="black" d="M1568.2,-237.2C1568.2,-237.2 1462.6,-237.2 1462.6,-237.2 1456.6,-237.2 1450.6,-231.2 1450.6,-225.2 1450.6,-225.2 1450.6,-90.8 1450.6,-90.8 1450.6,-84.8 1456.6,-78.8 1462.6,-78.8 1462.6,-78.8 1568.2,-78.8 1568.2,-78.8 1574.2,-78.8 1580.2,-84.8 1580.2,-90.8 1580.2,-90.8 1580.2,-225.2 1580.2,-225.2 1580.2,-231.2 1574.2,-237.2 1568.2,-237.2"/>
<text xml:space="preserve" text-anchor="middle" x="1515.4" y="-190.65" font-family="Arial, Helvetica, sans-serif" font-size="13.00">3. GENERATE</text>
<text xml:space="preserve" text-anchor="middle" x="1515.4" y="-175.65" font-family="Arial, Helvetica, sans-serif" font-size="13.00">NODE</text>
<text xml:space="preserve" text-anchor="middle" x="1515.4" y="-145.65" font-family="Arial, Helvetica, sans-serif" font-size="13.00">Tool&#45;</text>
<text xml:space="preserve" text-anchor="middle" x="1515.4" y="-130.65" font-family="Arial, Helvetica, sans-serif" font-size="13.00">Augmented</text>
<text xml:space="preserve" text-anchor="middle" x="1515.4" y="-115.65" font-family="Arial, Helvetica, sans-serif" font-size="13.00">LLM</text>
</g>
<!-- rerank&#45;&gt;generate -->
<g id="edge3" class="edge">
<title>rerank&#45;&gt;generate</title>
<path fill="none" stroke="black" stroke-width="2" d="M1392.89,-158C1392.89,-158 1437.08,-158 1437.08,-158"/>
<polygon fill="black" stroke="black" stroke-width="2" points="1437.08,-161.5 1447.08,-158 1437.08,-154.5 1437.08,-161.5"/>
</g>
<!-- tool_pubmed -->
<g id="node8" class="node">
<title>tool_pubmed</title>
<path fill="#ddebfa" stroke="black" d="M1784.6,-161.8C1784.6,-161.8 1650.2,-161.8 1650.2,-161.8 1644.2,-161.8 1638.2,-155.8 1638.2,-149.8 1638.2,-149.8 1638.2,-116.2 1638.2,-116.2 1638.2,-110.2 1644.2,-104.2 1650.2,-104.2 1650.2,-104.2 1784.6,-104.2 1784.6,-104.2 1790.6,-104.2 1796.6,-110.2 1796.6,-116.2 1796.6,-116.2 1796.6,-149.8 1796.6,-149.8 1796.6,-155.8 1790.6,-161.8 1784.6,-161.8"/>
<text xml:space="preserve" text-anchor="middle" x="1717.4" y="-128.15" font-family="Arial, Helvetica, sans-serif" font-size="13.00">search_pubmed</text>
</g>
<!-- generate&#45;&gt;tool_pubmed -->
<g id="edge11" class="edge">
<title>generate&#45;&gt;tool_pubmed</title>
<path fill="none" stroke="black" stroke-width="2" d="M1593.45,-133C1593.45,-133 1624.97,-133 1624.97,-133"/>
<polygon fill="black" stroke="black" stroke-width="2" points="1593.45,-129.5 1583.45,-133 1593.45,-136.5 1593.45,-129.5"/>
<polygon fill="black" stroke="black" stroke-width="2" points="1624.97,-136.5 1634.97,-133 1624.97,-129.5 1624.97,-136.5"/>
</g>
<!-- tool_predict -->
<g id="node9" class="node">
<title>tool_predict</title>
<path fill="#ddebfa" stroke="black" d="M2001,-161.8C2001,-161.8 1866.6,-161.8 1866.6,-161.8 1860.6,-161.8 1854.6,-155.8 1854.6,-149.8 1854.6,-149.8 1854.6,-116.2 1854.6,-116.2 1854.6,-110.2 1860.6,-104.2 1866.6,-104.2 1866.6,-104.2 2001,-104.2 2001,-104.2 2007,-104.2 2013,-110.2 2013,-116.2 2013,-116.2 2013,-149.8 2013,-149.8 2013,-155.8 2007,-161.8 2001,-161.8"/>
<text xml:space="preserve" text-anchor="middle" x="1933.8" y="-143.15" font-family="Arial, Helvetica, sans-serif" font-size="13.00">predict_heart_</text>
<text xml:space="preserve" text-anchor="middle" x="1933.8" y="-128.15" font-family="Arial, Helvetica, sans-serif" font-size="13.00">failure_risk</text>
<text xml:space="preserve" text-anchor="middle" x="1933.8" y="-113.15" font-family="Arial, Helvetica, sans-serif" font-size="13.00">(ChronosModel)</text>
</g>
<!-- generate&#45;&gt;tool_predict -->
<g id="edge12" class="edge">
<title>generate&#45;&gt;tool_predict</title>
<path fill="none" stroke="black" stroke-width="2" d="M1593.37,-91.5C1593.37,-91.5 1934,-91.5 1934,-91.5 1934,-91.5 1934,-92.72 1934,-92.72"/>
<polygon fill="black" stroke="black" stroke-width="2" points="1593.37,-88 1583.37,-91.5 1593.37,-95 1593.37,-88"/>
<polygon fill="black" stroke="black" stroke-width="2" points="1930.5,-90.7 1934,-100.7 1937.5,-90.7 1930.5,-90.7"/>
</g>
<!-- eval_metrics -->
<g id="node12" class="node">
<title>eval_metrics</title>
<path fill="#ddebfa" stroke="black" d="M1553.8,-358.8C1553.8,-358.8 1477,-358.8 1477,-358.8 1471,-358.8 1465,-352.8 1465,-346.8 1465,-346.8 1465,-313.2 1465,-313.2 1465,-307.2 1471,-301.2 1477,-301.2 1477,-301.2 1553.8,-301.2 1553.8,-301.2 1559.8,-301.2 1565.8,-307.2 1565.8,-313.2 1565.8,-313.2 1565.8,-346.8 1565.8,-346.8 1565.8,-352.8 1559.8,-358.8 1553.8,-358.8"/>
<text xml:space="preserve" text-anchor="middle" x="1515.4" y="-332.85" font-family="Arial, Helvetica, sans-serif" font-size="12.00">METRICS</text>
<text xml:space="preserve" text-anchor="middle" x="1515.4" y="-318.6" font-family="Arial, Helvetica, sans-serif" font-size="12.00">ENGINE</text>
</g>
<!-- generate&#45;&gt;eval_metrics -->
<g id="edge13" class="edge">
<title>generate&#45;&gt;eval_metrics</title>
<path fill="none" stroke="black" stroke-width="2" d="M1515,-250.48C1515,-250.48 1515,-288.01 1515,-288.01"/>
<polygon fill="black" stroke="black" stroke-width="2" points="1518.5,-250.48 1515,-240.48 1511.5,-250.48 1518.5,-250.48"/>
<polygon fill="black" stroke="black" stroke-width="2" points="1511.5,-288.01 1515,-298.01 1518.5,-288.01 1511.5,-288.01"/>
</g>
<!-- tool_pubmed&#45;&gt;tool_predict -->
<!-- eval_ablation -->
<g id="node11" class="node">
<title>eval_ablation</title>
<path fill="#ddebfa" stroke="black" d="M1366.2,-358.8C1366.2,-358.8 1289.4,-358.8 1289.4,-358.8 1283.4,-358.8 1277.4,-352.8 1277.4,-346.8 1277.4,-346.8 1277.4,-313.2 1277.4,-313.2 1277.4,-307.2 1283.4,-301.2 1289.4,-301.2 1289.4,-301.2 1366.2,-301.2 1366.2,-301.2 1372.2,-301.2 1378.2,-307.2 1378.2,-313.2 1378.2,-313.2 1378.2,-346.8 1378.2,-346.8 1378.2,-352.8 1372.2,-358.8 1366.2,-358.8"/>
<text xml:space="preserve" text-anchor="middle" x="1327.8" y="-332.85" font-family="Arial, Helvetica, sans-serif" font-size="12.00">ABLATION</text>
<text xml:space="preserve" text-anchor="middle" x="1327.8" y="-318.6" font-family="Arial, Helvetica, sans-serif" font-size="12.00">RUNNER</text>
</g>
<!-- eval_benchmark&#45;&gt;eval_ablation -->
<g id="edge5" class="edge">
<title>eval_benchmark&#45;&gt;eval_ablation</title>
<path fill="none" stroke="black" stroke-width="2" d="M1190.97,-330C1190.97,-330 1263.97,-330 1263.97,-330"/>
<polygon fill="black" stroke="black" stroke-width="2" points="1263.97,-333.5 1273.97,-330 1263.97,-326.5 1263.97,-333.5"/>
</g>
<!-- eval_ablation&#45;&gt;summary_insight -->
<g id="edge14" class="edge">
<title>eval_ablation&#45;&gt;summary_insight</title>
<path fill="none" stroke="black" stroke-width="2" d="M1328,-359.2C1328,-385.98 1328,-421.5 1328,-421.5 1328,-421.5 625.66,-421.5 625.66,-421.5"/>
<polygon fill="black" stroke="black" stroke-width="2" points="625.66,-418 615.66,-421.5 625.66,-425 625.66,-418"/>
</g>
<!-- eval_ablation&#45;&gt;eval_metrics -->
<g id="edge6" class="edge">
<title>eval_ablation&#45;&gt;eval_metrics</title>
<path fill="none" stroke="black" stroke-width="2" d="M1378.57,-330C1378.57,-330 1451.57,-330 1451.57,-330"/>
<polygon fill="black" stroke="black" stroke-width="2" points="1451.57,-333.5 1461.57,-330 1451.57,-326.5 1451.57,-333.5"/>
</g>
<!-- eval_results -->
<g id="node13" class="node">
<title>eval_results</title>
<path fill="#ddebfa" stroke="black" d="M1755.8,-358.8C1755.8,-358.8 1679,-358.8 1679,-358.8 1673,-358.8 1667,-352.8 1667,-346.8 1667,-346.8 1667,-313.2 1667,-313.2 1667,-307.2 1673,-301.2 1679,-301.2 1679,-301.2 1755.8,-301.2 1755.8,-301.2 1761.8,-301.2 1767.8,-307.2 1767.8,-313.2 1767.8,-313.2 1767.8,-346.8 1767.8,-346.8 1767.8,-352.8 1761.8,-358.8 1755.8,-358.8"/>
<text xml:space="preserve" text-anchor="middle" x="1717.4" y="-325.73" font-family="Arial, Helvetica, sans-serif" font-size="12.00">RESULTS</text>
</g>
<!-- eval_metrics&#45;&gt;eval_results -->
<g id="edge7" class="edge">
<title>eval_metrics&#45;&gt;eval_results</title>
<path fill="none" stroke="black" stroke-width="2" d="M1566.11,-330C1566.11,-330 1653.64,-330 1653.64,-330"/>
<polygon fill="black" stroke="black" stroke-width="2" points="1653.64,-333.5 1663.64,-330 1653.64,-326.5 1653.64,-333.5"/>
</g>
<!-- feedback_anchor&#45;&gt;query_input -->
<g id="edge16" class="edge">
<title>feedback_anchor&#45;&gt;query_input:s</title>
<path fill="none" stroke="black" stroke-width="2" d="M671.24,-440.1C671.24,-440.1 773.57,-440.1 773.57,-440.1"/>
<polygon fill="black" stroke="black" stroke-width="2" points="773.57,-443.6 783.57,-440.1 773.57,-436.6 773.57,-443.6"/>
<text xml:space="preserve" text-anchor="middle" x="666.53" y="-426.8" font-family="Arial, Helvetica, sans-serif" font-size="14.00">Dashboard display</text>
<text xml:space="preserve" text-anchor="middle" x="666.53" y="-411.05" font-family="Arial, Helvetica, sans-serif" font-size="14.00"> to TempoRAG</text>
</g>
</g>
</svg>
