<?xml version="1.0" encoding="UTF-8" standalone="no"?>
<!DOCTYPE svg PUBLIC "-//W3C//DTD SVG 1.1//EN"
 "http://www.w3.org/Graphics/SVG/1.1/DTD/svg11.dtd">
<!-- Generated by graphviz version 14.1.2 (20260124.0452)
 -->
<!-- Title: TempoRAG Pages: 1 -->
<svg width="32089pt" height="7983pt"
 viewBox="0.00 0.00 32089.00 7983.00" xmlns="http://www.w3.org/2000/svg" xmlns:xlink="http://www.w3.org/1999/xlink">
<g id="graph0" class="graph" transform="scale(16.6667 16.6667) rotate(0) translate(4 475)">
<title>TempoRAG</title>
<polygon fill="white" stroke="none" points="-4,4 -4,-475 1921.35,-475 1921.35,4 -4,4"/>
<g id="clust1" class="cluster">
<title>cluster_input</title>
<path fill="#3b82f6" stroke="#1e3a8a" stroke-width="1.5" d="M238.38,-175C238.38,-175 729.75,-175 729.75,-175 735.75,-175 741.75,-181 741.75,-187 741.75,-187 741.75,-309 741.75,-309 741.75,-315 735.75,-321 729.75,-321 729.75,-321 238.38,-321 238.38,-321 232.38,-321 226.38,-315 226.38,-309 226.38,-309 226.38,-187 226.38,-187 226.38,-181 232.38,-175 238.38,-175"/>
<text xml:space="preserve" text-anchor="middle" x="484.06" y="-302.75" font-family="Arial Bold" font-size="15.00" fill="white">CLINICAL</text>
<text xml:space="preserve" text-anchor="middle" x="484.06" y="-284.75" font-family="Arial Bold" font-size="15.00" fill="white">INPUT</text>
<text xml:space="preserve" text-anchor="middle" x="484.06" y="-266.75" font-family="Arial Bold" font-size="15.00" fill="white">(Frontend)</text>
</g>
<g id="clust2" class="cluster">
<title>cluster_rag</title>
<path fill="#f8fafc" stroke="#64748b" stroke-width="1.2" d="M960.25,-241C960.25,-241 1435.75,-241 1435.75,-241 1441.75,-241 1447.75,-247 1447.75,-253 1447.75,-253 1447.75,-417 1447.75,-417 1447.75,-423 1441.75,-429 1435.75,-429 1435.75,-429 960.25,-429 960.25,-429 954.25,-429 948.25,-423 948.25,-417 948.25,-417 948.25,-253 948.25,-253 948.25,-247 954.25,-241 960.25,-241"/>
<text xml:space="preserve" text-anchor="middle" x="1198" y="-411.7" font-family="Arial Bold" font-size="14.00">AGENTIC RAG PIPELINE</text>
<text xml:space="preserve" text-anchor="middle" x="1198" y="-395.95" font-family="Arial Bold" font-size="14.00">(LangGraph)</text>
</g>
<g id="clust3" class="cluster">
<title>cluster_tools</title>
<path fill="#f8fafc" stroke="#64748b" stroke-width="1.2" d="M1501.75,-339C1501.75,-339 1897.35,-339 1897.35,-339 1903.35,-339 1909.35,-345 1909.35,-351 1909.35,-351 1909.35,-451 1909.35,-451 1909.35,-457 1903.35,-463 1897.35,-463 1897.35,-463 1501.75,-463 1501.75,-463 1495.75,-463 1489.75,-457 1489.75,-451 1489.75,-451 1489.75,-351 1489.75,-351 1489.75,-345 1495.75,-339 1501.75,-339"/>
<text xml:space="preserve" text-anchor="middle" x="1699.55" y="-445.7" font-family="Arial Bold" font-size="14.00">CLINICAL TOOL LAYER</text>
<text xml:space="preserve" text-anchor="middle" x="1699.55" y="-429.95" font-family="Arial Bold" font-size="14.00">(LangChain)</text>
</g>
<g id="clust4" class="cluster">
<title>cluster_eval</title>
<path fill="#f8fafc" stroke="#64748b" stroke-width="1.2" d="M958,-135C958,-135 1630.55,-135 1630.55,-135 1636.55,-135 1642.55,-141 1642.55,-147 1642.55,-147 1642.55,-221 1642.55,-221 1642.55,-227 1636.55,-233 1630.55,-233 1630.55,-233 958,-233 958,-233 952,-233 946,-227 946,-221 946,-221 946,-147 946,-147 946,-141 952,-135 958,-135"/>
<text xml:space="preserve" text-anchor="middle" x="1294.28" y="-215.7" font-family="Arial Bold" font-size="14.00">OFFLINE EVALUATION SUBSYSTEM</text>
</g>
<!-- q_input -->
<g id="node1" class="node">
<title>q_input</title>
<path fill="white" stroke="#1e3a8a" stroke-width="1.2" d="M329.62,-243.8C329.62,-243.8 246.38,-243.8 246.38,-243.8 240.38,-243.8 234.38,-237.8 234.38,-231.8 234.38,-231.8 234.38,-198.2 234.38,-198.2 234.38,-192.2 240.38,-186.2 246.38,-186.2 246.38,-186.2 329.62,-186.2 329.62,-186.2 335.62,-186.2 341.62,-192.2 341.62,-198.2 341.62,-198.2 341.62,-231.8 341.62,-231.8 341.62,-237.8 335.62,-243.8 329.62,-243.8"/>
<text xml:space="preserve" text-anchor="middle" x="288" y="-217.45" font-family="Arial" font-size="14.00">Clinical</text>
<text xml:space="preserve" text-anchor="middle" x="288" y="-201.7" font-family="Arial" font-size="14.00">Query Input</text>
</g>
<!-- r_input -->
<g id="node2" class="node">
<title>r_input</title>
<path fill="white" stroke="#1e3a8a" stroke-width="1.2" d="M721.75,-251.43C721.75,-251.43 646,-251.43 646,-251.43 640,-251.43 634,-245.43 634,-239.43 634,-239.43 634,-194.57 634,-194.57 634,-188.57 640,-182.57 646,-182.57 646,-182.57 721.75,-182.57 721.75,-182.57 727.75,-182.57 733.75,-188.57 733.75,-194.57 733.75,-194.57 733.75,-239.43 733.75,-239.43 733.75,-245.43 727.75,-251.43 721.75,-251.43"/>
<text xml:space="preserve" text-anchor="middle" x="683.88" y="-227.32" font-family="Arial" font-size="14.00">Risk</text>
<text xml:space="preserve" text-anchor="middle" x="683.88" y="-211.57" font-family="Arial" font-size="14.00">Parameter</text>
<text xml:space="preserve" text-anchor="middle" x="683.88" y="-195.82" font-family="Arial" font-size="14.00">Input</text>
</g>
<!-- q_input&#45;&gt;r_input -->
<!-- api -->
<g id="node3" class="node">
<title>api</title>
<path fill="#bae6fd" stroke="#0284c7" stroke-width="1.2" d="M884,-414C884,-414 803.75,-414 803.75,-414 797.75,-414 791.75,-408 791.75,-402 791.75,-402 791.75,-30 791.75,-30 791.75,-24 797.75,-18 803.75,-18 803.75,-18 884,-18 884,-18 890,-18 896,-24 896,-30 896,-30 896,-402 896,-402 896,-408 890,-414 884,-414"/>
<text xml:space="preserve" text-anchor="middle" x="843.88" y="-218.45" font-family="Arial Bold" font-size="14.00">API</text>
<text xml:space="preserve" text-anchor="middle" x="843.88" y="-202.7" font-family="Arial Bold" font-size="14.00">GATEWAY</text>
</g>
<!-- q_input&#45;&gt;api -->
<g id="edge8" class="edge">
<title>q_input&#45;&gt;api</title>
<path fill="none" stroke="#1e293b" stroke-width="2.2" d="M306.35,-185.6C306.35,-165.21 306.35,-141.69 306.35,-141.69 306.35,-141.69 778.03,-141.69 778.03,-141.69"/>
<polygon fill="#1e293b" stroke="#1e293b" stroke-width="2.2" points="778.03,-145.19 788.03,-141.69 778.03,-138.19 778.03,-145.19"/>
</g>
<!-- r_input&#45;&gt;api -->
<g id="edge9" class="edge">
<title>r_input&#45;&gt;api</title>
<path fill="none" stroke="#1e293b" stroke-width="2.2" d="M734.06,-217C734.06,-217 778.05,-217 778.05,-217"/>
<polygon fill="#1e293b" stroke="#1e293b" stroke-width="2.2" points="778.05,-220.5 788.05,-217 778.05,-213.5 778.05,-220.5"/>
</g>
<!-- retrieve -->
<g id="node4" class="node">
<title>retrieve</title>
<path fill="#e0f2fe" stroke="#64748b" stroke-width="1.2" d="M1062.75,-369.18C1062.75,-369.18 968.25,-369.18 968.25,-369.18 962.25,-369.18 956.25,-363.18 956.25,-357.18 956.25,-357.18 956.25,-264.82 956.25,-264.82 956.25,-258.82 962.25,-252.82 968.25,-252.82 968.25,-252.82 1062.75,-252.82 1062.75,-252.82 1068.75,-252.82 1074.75,-258.82 1074.75,-264.82 1074.75,-264.82 1074.75,-357.18 1074.75,-357.18 1074.75,-363.18 1068.75,-369.18 1062.75,-369.18"/>
<text xml:space="preserve" text-anchor="middle" x="1015.5" y="-345.07" font-family="Arial" font-size="14.00">1. RETRIEVE</text>
<text xml:space="preserve" text-anchor="middle" x="1015.5" y="-329.32" font-family="Arial" font-size="14.00">NODE</text>
<text xml:space="preserve" text-anchor="middle" x="1015.5" y="-297.57" font-family="Arial" font-size="14.00">SapBERT</text>
<text xml:space="preserve" text-anchor="middle" x="1015.5" y="-281.82" font-family="Arial" font-size="14.00">&amp;</text>
<text xml:space="preserve" text-anchor="middle" x="1015.5" y="-266.07" font-family="Arial" font-size="14.00">FAISS</text>
</g>
<!-- api&#45;&gt;retrieve -->
<g id="edge10" class="edge">
<title>api&#45;&gt;retrieve</title>
<path fill="none" stroke="#1e293b" stroke-width="2.2" d="M896.3,-311C896.3,-311 942.56,-311 942.56,-311"/>
<polygon fill="#1e293b" stroke="#1e293b" stroke-width="2.2" points="942.56,-314.5 952.56,-311 942.56,-307.5 942.56,-314.5"/>
</g>
<!-- bench -->
<g id="node9" class="node">
<title>bench</title>
<path fill="#e0f2fe" stroke="#64748b" stroke-width="1.2" d="M1065,-200.8C1065,-200.8 966,-200.8 966,-200.8 960,-200.8 954,-194.8 954,-188.8 954,-188.8 954,-155.2 954,-155.2 954,-149.2 960,-143.2 966,-143.2 966,-143.2 1065,-143.2 1065,-143.2 1071,-143.2 1077,-149.2 1077,-155.2 1077,-155.2 1077,-188.8 1077,-188.8 1077,-194.8 1071,-200.8 1065,-200.8"/>
<text xml:space="preserve" text-anchor="middle" x="1015.5" y="-174.45" font-family="Arial" font-size="14.00">BENCHMARK</text>
<text xml:space="preserve" text-anchor="middle" x="1015.5" y="-158.7" font-family="Arial" font-size="14.00">DATASET</text>
</g>
<!-- api&#45;&gt;bench -->
<g id="edge11" class="edge">
<title>api&#45;&gt;bench</title>
<path fill="none" stroke="#1e293b" stroke-width="2.2" d="M896.3,-172C896.3,-172 940.11,-172 940.11,-172"/>
<polygon fill="#1e293b" stroke="#1e293b" stroke-width="2.2" points="940.11,-175.5 950.11,-172 940.11,-168.5 940.11,-175.5"/>
</g>
<!-- rerank -->
<g id="node5" class="node">
<title>rerank</title>
<path fill="#e0f2fe" stroke="#64748b" stroke-width="1.2" d="M1244.5,-381.05C1244.5,-381.05 1147,-381.05 1147,-381.05 1141,-381.05 1135,-375.05 1135,-369.05 1135,-369.05 1135,-260.95 1135,-260.95 1135,-254.95 1141,-248.95 1147,-248.95 1147,-248.95 1244.5,-248.95 1244.5,-248.95 1250.5,-248.95 1256.5,-254.95 1256.5,-260.95 1256.5,-260.95 1256.5,-369.05 1256.5,-369.05 1256.5,-375.05 1250.5,-381.05 1244.5,-381.05"/>
<text xml:space="preserve" text-anchor="middle" x="1195.75" y="-356.95" font-family="Arial" font-size="14.00">2. RERANK</text>
<text xml:space="preserve" text-anchor="middle" x="1195.75" y="-341.2" font-family="Arial" font-size="14.00">NODE</text>
<text xml:space="preserve" text-anchor="middle" x="1195.75" y="-309.45" font-family="Arial" font-size="14.00">Configurable</text>
<text xml:space="preserve" text-anchor="middle" x="1195.75" y="-293.7" font-family="Arial" font-size="14.00">Decay: ETVD,</text>
<text xml:space="preserve" text-anchor="middle" x="1195.75" y="-277.95" font-family="Arial" font-size="14.00">Sigmoid,</text>
<text xml:space="preserve" text-anchor="middle" x="1195.75" y="-262.2" font-family="Arial" font-size="14.00">BioScore</text>
</g>
<!-- retrieve&#45;&gt;rerank -->
<g id="edge2" class="edge">
<title>retrieve&#45;&gt;rerank</title>
<path fill="none" stroke="#1e293b" stroke-width="2.2" d="M1075.27,-311C1075.27,-311 1121.27,-311 1121.27,-311"/>
<polygon fill="#1e293b" stroke="#1e293b" stroke-width="2.2" points="1121.27,-314.5 1131.27,-311 1121.27,-307.5 1121.27,-314.5"/>
</g>
<!-- generate -->
<g id="node6" class="node">
<title>generate</title>
<path fill="#e0f2fe" stroke="#64748b" stroke-width="1.2" d="M1427.75,-373.18C1427.75,-373.18 1326.5,-373.18 1326.5,-373.18 1320.5,-373.18 1314.5,-367.18 1314.5,-361.18 1314.5,-361.18 1314.5,-268.82 1314.5,-268.82 1314.5,-262.82 1320.5,-256.82 1326.5,-256.82 1326.5,-256.82 1427.75,-256.82 1427.75,-256.82 1433.75,-256.82 1439.75,-262.82 1439.75,-268.82 1439.75,-268.82 1439.75,-361.18 1439.75,-361.18 1439.75,-367.18 1433.75,-373.18 1427.75,-373.18"/>
<text xml:space="preserve" text-anchor="middle" x="1377.12" y="-349.07" font-family="Arial" font-size="14.00">3. GENERATE</text>
<text xml:space="preserve" text-anchor="middle" x="1377.12" y="-333.32" font-family="Arial" font-size="14.00">NODE</text>
<text xml:space="preserve" text-anchor="middle" x="1377.12" y="-301.57" font-family="Arial" font-size="14.00">Tool&#45;</text>
<text xml:space="preserve" text-anchor="middle" x="1377.12" y="-285.82" font-family="Arial" font-size="14.00">Augmented</text>
<text xml:space="preserve" text-anchor="middle" x="1377.12" y="-270.07" font-family="Arial" font-size="14.00">LLM</text>
</g>
<!-- rerank&#45;&gt;generate -->
<g id="edge3" class="edge">
<title>rerank&#45;&gt;generate</title>
<path fill="none" stroke="#1e293b" stroke-width="2.2" d="M1256.9,-315C1256.9,-315 1300.74,-315 1300.74,-315"/>
<polygon fill="#1e293b" stroke="#1e293b" stroke-width="2.2" points="1300.74,-318.5 1310.74,-315 1300.74,-311.5 1300.74,-318.5"/>
</g>
<!-- pubmed -->
<g id="node7" class="node">
<title>pubmed</title>
<path fill="#e0f2fe" stroke="#64748b" stroke-width="1.2" d="M1658.55,-412.8C1658.55,-412.8 1509.75,-412.8 1509.75,-412.8 1503.75,-412.8 1497.75,-406.8 1497.75,-400.8 1497.75,-400.8 1497.75,-367.2 1497.75,-367.2 1497.75,-361.2 1503.75,-355.2 1509.75,-355.2 1509.75,-355.2 1658.55,-355.2 1658.55,-355.2 1664.55,-355.2 1670.55,-361.2 1670.55,-367.2 1670.55,-367.2 1670.55,-400.8 1670.55,-400.8 1670.55,-406.8 1664.55,-412.8 1658.55,-412.8"/>
<text xml:space="preserve" text-anchor="middle" x="1584.15" y="-378.57" font-family="Arial" font-size="14.00">search_pubmed</text>
</g>
<!-- generate&#45;&gt;pubmed -->
<g id="edge12" class="edge">
<title>generate&#45;&gt;pubmed</title>
<path fill="none" stroke="#1e293b" stroke-width="2.2" d="M1453.41,-364.19C1453.41,-364.19 1484.12,-364.19 1484.12,-364.19"/>
<polygon fill="#1e293b" stroke="#1e293b" stroke-width="2.2" points="1453.41,-360.69 1443.41,-364.19 1453.41,-367.69 1453.41,-360.69"/>
<polygon fill="#1e293b" stroke="#1e293b" stroke-width="2.2" points="1484.12,-367.69 1494.12,-364.19 1484.12,-360.69 1484.12,-367.69"/>
</g>
<!-- chronos -->
<g id="node8" class="node">
<title>chronos</title>
<path fill="#e0f2fe" stroke="#64748b" stroke-width="1.2" d="M1889.35,-415.43C1889.35,-415.43 1740.55,-415.43 1740.55,-415.43 1734.55,-415.43 1728.55,-409.43 1728.55,-403.43 1728.55,-403.43 1728.55,-358.57 1728.55,-358.57 1728.55,-352.57 1734.55,-346.57 1740.55,-346.57 1740.55,-346.57 1889.35,-346.57 1889.35,-346.57 1895.35,-346.57 1901.35,-352.57 1901.35,-358.57 1901.35,-358.57 1901.35,-403.43 1901.35,-403.43 1901.35,-409.43 1895.35,-415.43 1889.35,-415.43"/>
<text xml:space="preserve" text-anchor="middle" x="1814.95" y="-391.32" font-family="Arial" font-size="14.00">predict_heart_</text>
<text xml:space="preserve" text-anchor="middle" x="1814.95" y="-375.57" font-family="Arial" font-size="14.00">failure_risk</text>
<text xml:space="preserve" text-anchor="middle" x="1814.95" y="-359.82" font-family="Arial" font-size="14.00">(ChronosModel)</text>
</g>
<!-- generate&#45;&gt;chronos -->
<g id="edge13" class="edge">
<title>generate&#45;&gt;chronos</title>
<path fill="none" stroke="#1e293b" stroke-width="2.2" d="M1453.65,-350.89C1453.65,-350.89 1714.66,-350.89 1714.66,-350.89"/>
<polygon fill="#1e293b" stroke="#1e293b" stroke-width="2.2" points="1453.65,-347.39 1443.65,-350.89 1453.65,-354.39 1453.65,-347.39"/>
<polygon fill="#1e293b" stroke="#1e293b" stroke-width="2.2" points="1714.66,-354.39 1724.66,-350.89 1714.66,-347.39 1714.66,-354.39"/>
</g>
<!-- metrics -->
<g id="node11" class="node">
<title>metrics</title>
<path fill="#e0f2fe" stroke="#64748b" stroke-width="1.2" d="M1415.53,-200.8C1415.53,-200.8 1338.72,-200.8 1338.72,-200.8 1332.72,-200.8 1326.72,-194.8 1326.72,-188.8 1326.72,-188.8 1326.72,-155.2 1326.72,-155.2 1326.72,-149.2 1332.72,-143.2 1338.72,-143.2 1338.72,-143.2 1415.53,-143.2 1415.53,-143.2 1421.53,-143.2 1427.53,-149.2 1427.53,-155.2 1427.53,-155.2 1427.53,-188.8 1427.53,-188.8 1427.53,-194.8 1421.53,-200.8 1415.53,-200.8"/>
<text xml:space="preserve" text-anchor="middle" x="1377.12" y="-174.45" font-family="Arial" font-size="14.00">METRICS</text>
<text xml:space="preserve" text-anchor="middle" x="1377.12" y="-158.7" font-family="Arial" font-size="14.00">ENGINE</text>
</g>
<!-- generate&#45;&gt;metrics -->
<g id="edge14" class="edge">
<title>generate&#45;&gt;metrics</title>
<path fill="none" stroke="#1e293b" stroke-width="2.2" d="M1377.35,-235.37C1377.35,-235.25 1377.35,-235.12 1377.35,-235"/>
<polygon fill="#1e293b" stroke="#1e293b" stroke-width="2.2" points="1373.85,-227.67 1377.35,-237.67 1380.85,-227.67 1373.85,-227.67"/>
<polygon fill="#1e293b" stroke="#1e293b" stroke-width="2.2" points="1380.85,-246.33 1377.35,-236.33 1373.85,-246.33 1380.85,-246.33"/>
</g>
<!-- pubmed&#45;&gt;chronos -->
<!-- ablation -->
<g id="node10" class="node">
<title>ablation</title>
<path fill="#e0f2fe" stroke="#64748b" stroke-width="1.2" d="M1235.12,-200.8C1235.12,-200.8 1156.38,-200.8 1156.38,-200.8 1150.38,-200.8 1144.38,-194.8 1144.38,-188.8 1144.38,-188.8 1144.38,-155.2 1144.38,-155.2 1144.38,-149.2 1150.38,-143.2 1156.38,-143.2 1156.38,-143.2 1235.12,-143.2 1235.12,-143.2 1241.12,-143.2 1247.12,-149.2 1247.12,-155.2 1247.12,-155.2 1247.12,-188.8 1247.12,-188.8 1247.12,-194.8 1241.12,-200.8 1235.12,-200.8"/>
<text xml:space="preserve" text-anchor="middle" x="1195.75" y="-174.45" font-family="Arial" font-size="14.00">ABLATION</text>
<text xml:space="preserve" text-anchor="middle" x="1195.75" y="-158.7" font-family="Arial" font-size="14.00">RUNNER</text>
</g>
<!-- bench&#45;&gt;ablation -->
<g id="edge5" class="edge">
<title>bench&#45;&gt;ablation</title>
<path fill="none" stroke="#1e293b" stroke-width="2.2" d="M1077.53,-172C1077.53,-172 1130.46,-172 1130.46,-172"/>
<polygon fill="#1e293b" stroke="#1e293b" stroke-width="2.2" points="1130.46,-175.5 1140.46,-172 1130.46,-168.5 1130.46,-175.5"/>
</g>
<!-- ablation&#45;&gt;metrics -->
<g id="edge6" class="edge">
<title>ablation&#45;&gt;metrics</title>
<path fill="none" stroke="#1e293b" stroke-width="2.2" d="M1247.72,-172C1247.72,-172 1313.06,-172 1313.06,-172"/>
<polygon fill="#1e293b" stroke="#1e293b" stroke-width="2.2" points="1313.06,-175.5 1323.06,-172 1313.06,-168.5 1313.06,-175.5"/>
</g>
<!-- summary -->
<g id="node13" class="node">
<title>summary</title>
<path fill="#fef08a" stroke="#ca8a04" stroke-width="1.2" d="M564,-100.8C564,-100.8 12,-100.8 12,-100.8 6,-100.8 0,-94.8 0,-88.8 0,-88.8 0,-55.2 0,-55.2 0,-49.2 6,-43.2 12,-43.2 12,-43.2 564,-43.2 564,-43.2 570,-43.2 576,-49.2 576,-55.2 576,-55.2 576,-88.8 576,-88.8 576,-94.8 570,-100.8 564,-100.8"/>
<text xml:space="preserve" text-anchor="middle" x="288" y="-66.58" font-family="Arial Bold" font-size="14.00">CLINICAL INSIGHT &amp; RESULTS SUMMARY</text>
</g>
<!-- ablation&#45;&gt;summary -->
<g id="edge15" class="edge">
<title>ablation&#45;&gt;summary</title>
<path fill="none" stroke="#1e293b" stroke-width="2.2" d="M1195.35,-135C1195.35,-84.45 1195.35,0 1195.35,0 1195.35,0 288.35,0 288.35,0 288.35,0 288.35,-29.39 288.35,-29.39"/>
<polygon fill="#1e293b" stroke="#1e293b" stroke-width="2.2" points="284.85,-29.39 288.35,-39.39 291.85,-29.39 284.85,-29.39"/>
</g>
<!-- results -->
<g id="node12" class="node">
<title>results</title>
<path fill="#e0f2fe" stroke="#64748b" stroke-width="1.2" d="M1622.55,-200.8C1622.55,-200.8 1545.75,-200.8 1545.75,-200.8 1539.75,-200.8 1533.75,-194.8 1533.75,-188.8 1533.75,-188.8 1533.75,-155.2 1533.75,-155.2 1533.75,-149.2 1539.75,-143.2 1545.75,-143.2 1545.75,-143.2 1622.55,-143.2 1622.55,-143.2 1628.55,-143.2 1634.55,-149.2 1634.55,-155.2 1634.55,-155.2 1634.55,-188.8 1634.55,-188.8 1634.55,-194.8 1628.55,-200.8 1622.55,-200.8"/>
<text xml:space="preserve" text-anchor="middle" x="1584.15" y="-166.57" font-family="Arial" font-size="14.00">RESULTS</text>
</g>
<!-- metrics&#45;&gt;results -->
<g id="edge7" class="edge">
<title>metrics&#45;&gt;results</title>
<path fill="none" stroke="#1e293b" stroke-width="2.2" d="M1428.03,-172C1428.03,-172 1520.11,-172 1520.11,-172"/>
<polygon fill="#1e293b" stroke="#1e293b" stroke-width="2.2" points="1520.11,-175.5 1530.11,-172 1520.11,-168.5 1520.11,-175.5"/>
</g>
<!-- summary&#45;&gt;q_input -->
<g id="edge16" class="edge">
<title>summary&#45;&gt;q_input</title>
<path fill="none" stroke="#1e293b" stroke-width="2.2" d="M270.35,-101.28C270.35,-101.28 270.35,-172.43 270.35,-172.43"/>
<polygon fill="#1e293b" stroke="#1e293b" stroke-width="2.2" points="266.85,-161.67 270.35,-171.67 273.85,-161.67 266.85,-161.67"/>
<text xml:space="preserve" text-anchor="middle" x="210.72" y="-124.5" font-family="Arial" font-size="13.00">Dashboard display &#160;</text>
<text xml:space="preserve" text-anchor="middle" x="210.72" y="-109.5" font-family="Arial" font-size="13.00"> to TempoRAG &#160;&#160;</text>
</g>
</g>
</svg>
